<?xml version="1.0" encoding="UTF-8" standalone="no"?>
<!DOCTYPE svg PUBLIC "-//W3C//DTD SVG 1.1//EN"
 "http://www.w3.org/Graphics/SVG/1.1/DTD/svg11.dtd">
<!-- Generated by graphviz version 2.40.1 (20161225.0304)
 -->
<!-- Title: %3 Pages: 1 -->
<svg width="219pt" height="275pt"
 viewBox="0.00 0.00 219.00 275.00" xmlns="http://www.w3.org/2000/svg" xmlns:xlink="http://www.w3.org/1999/xlink">
<g id="graph0" class="graph" transform="scale(1 1) rotate(0) translate(4 271)">
<title>%3</title>
<polygon fill="#ffffff" stroke="transparent" points="-4,4 -4,-271 215,-271 215,4 -4,4"/>
<!-- Start -->
<g id="node1" class="node">
<title>Start</title>
<ellipse fill="#b2df8a" stroke="#b2df8a" cx="87.6982" cy="-125.3031" rx="21.3606" ry="21.3606"/>
<polyline fill="none" stroke="#b2df8a" points="101.8721,-141.3757 73.5243,-141.3757 "/>
<polyline fill="none" stroke="#b2df8a" points="101.8721,-109.2305 73.5243,-109.2305 "/>
<text text-anchor="middle" x="87.6982" y="-122.3031" font-family="sans-serif" font-size="10.00" fill="#1f78b4">Start</text>
</g>
<!-- A -->
<g id="node2" class="node">
<title>A</title>
<ellipse fill="#fdbf6f" stroke="#fdbf6f" cx="177.3603" cy="-137.0055" rx="18" ry="18"/>
<polyline fill="none" stroke="#fdbf6f" points="189.2655,-150.5055 165.4551,-150.5055 "/>
<polyline fill="none" stroke="#fdbf6f" points="189.2655,-123.5055 165.4551,-123.5055 "/>
<text text-anchor="middle" x="177.3603" y="-134.0055" font-family="sans-serif" font-size="10.00" fill="#e31a1c">A</text>
</g>
<!-- Start&#45;&gt;A -->
<g id="edge1" class="edge">
<title>Start&#45;&gt;A</title>
<path fill="none" stroke="#000000" d="M109.4029,-128.1359C124.7439,-130.1382 145.0602,-132.7898 159.4717,-134.6707"/>
</g>
<!-- B -->
<g id="node5" class="node">
<title>B</title>
<ellipse fill="#b2df8a" stroke="#b2df8a" cx="193.1643" cy="-32.5615" rx="18" ry="18"/>
<polyline fill="none" stroke="#b2df8a" points="205.0695,-46.0615 181.2591,-46.0615 "/>
<polyline fill="none" stroke="#b2df8a" points="205.0695,-19.0615 181.2591,-19.0615 "/>
<text text-anchor="middle" x="193.1643" y="-29.5615" font-family="sans-serif" font-size="10.00" fill="#1f78b4">B</text>
</g>
<!-- Start&#45;&gt;B -->
<g id="edge4" class="edge">
<title>Start&#45;&gt;B</title>
<path fill="none" stroke="#000000" d="M104.1773,-110.8122C122.4062,-94.7826 151.8377,-68.9021 171.8182,-51.3322"/>
<polygon fill="#000000" stroke="#000000" points="174.2862,-53.8227 179.4845,-44.5908 169.6637,-48.566 174.2862,-53.8227"/>
</g>
<!-- C -->
<g id="node6" class="node">
<title>C</title>
<ellipse fill="#d3d3d3" stroke="#d3d3d3" cx="17.7154" cy="-166.0472" rx="18" ry="18"/>
<polyline fill="none" stroke="#d3d3d3" points="29.6206,-179.5472 5.8102,-179.5472 "/>
<polyline fill="none" stroke="#d3d3d3" points="29.6206,-152.5472 5.8102,-152.5472 "/>
<text text-anchor="middle" x="17.7154" y="-163.0472" font-family="sans-serif" font-size="10.00" fill="#000000">C</text>
</g>
<!-- Start&#45;&gt;C -->
<g id="edge7" class="edge">
<title>Start&#45;&gt;C</title>
<path fill="none" stroke="#000000" d="M68.9441,-136.2218C57.9314,-142.6334 44.1616,-150.6502 33.6722,-156.7571"/>
</g>
<!-- D -->
<g id="node3" class="node">
<title>D</title>
<ellipse fill="#fdbf6f" stroke="#fdbf6f" cx="176.3804" cy="-238.3358" rx="18" ry="18"/>
<polyline fill="none" stroke="#fdbf6f" points="188.2856,-251.8358 164.4752,-251.8358 "/>
<polyline fill="none" stroke="#fdbf6f" points="188.2856,-224.8358 164.4752,-224.8358 "/>
<text text-anchor="middle" x="176.3804" y="-235.3358" font-family="sans-serif" font-size="10.00" fill="#e31a1c">D</text>
</g>
<!-- A&#45;&gt;D -->
<g id="edge2" class="edge">
<title>A&#45;&gt;D</title>
<path fill="none" stroke="#000000" d="M177.1851,-155.1213C177.0079,-173.4515 176.7353,-201.639 176.5574,-220.0352"/>
</g>
<!-- A&#45;&gt;B -->
<g id="edge6" class="edge">
<title>A&#45;&gt;B</title>
<path fill="none" stroke="#000000" d="M180.1132,-118.8127C183.0139,-99.6427 187.5542,-69.6368 190.443,-50.5458"/>
</g>
<!-- F -->
<g id="node4" class="node">
<title>F</title>
<ellipse fill="#fdbf6f" stroke="#fdbf6f" cx="58.7436" cy="-249.3773" rx="18" ry="18"/>
<polyline fill="none" stroke="#fdbf6f" points="70.6488,-262.8773 46.8384,-262.8773 "/>
<polyline fill="none" stroke="#fdbf6f" points="70.6488,-235.8773 46.8384,-235.8773 "/>
<text text-anchor="middle" x="58.7436" y="-246.3773" font-family="sans-serif" font-size="10.00" fill="#e31a1c">F</text>
</g>
<!-- D&#45;&gt;F -->
<g id="edge3" class="edge">
<title>D&#45;&gt;F</title>
<path fill="none" stroke="#000000" d="M158.2575,-240.0368C136.0869,-242.1178 98.7859,-245.6189 76.6941,-247.6925"/>
</g>
<!-- End -->
<g id="node8" class="node">
<title>End</title>
<ellipse fill="#b2df8a" stroke="#b2df8a" cx="113.6318" cy="-19.3877" rx="19.5208" ry="19.5208"/>
<polyline fill="none" stroke="#b2df8a" points="126.5359,-34.0205 100.7276,-34.0205 "/>
<polyline fill="none" stroke="#b2df8a" points="126.5359,-4.7549 100.7276,-4.7549 "/>
<text text-anchor="middle" x="113.6318" y="-16.3877" font-family="sans-serif" font-size="10.00" fill="#1f78b4">End</text>
</g>
<!-- B&#45;&gt;End -->
<g id="edge5" class="edge">
<title>B&#45;&gt;End</title>
<path fill="none" stroke="#000000" d="M175.1171,-29.5722C165.6008,-27.9959 153.6906,-26.0231 142.8935,-24.2346"/>
<polygon fill="#000000" stroke="#000000" points="143.4346,-20.7767 132.997,-22.5954 142.2906,-27.6826 143.4346,-20.7767"/>
</g>
<!-- E -->
<g id="node7" class="node">
<title>E</title>
<ellipse fill="#d3d3d3" stroke="#d3d3d3" cx="25.4267" cy="-33.6151" rx="18" ry="18"/>
<polyline fill="none" stroke="#d3d3d3" points="37.3319,-47.1151 13.5215,-47.1151 "/>
<polyline fill="none" stroke="#d3d3d3" points="37.3319,-20.1151 13.5215,-20.1151 "/>
<text text-anchor="middle" x="25.4267" y="-30.6151" font-family="sans-serif" font-size="10.00" fill="#000000">E</text>
</g>
<!-- C&#45;&gt;E -->
<g id="edge8" class="edge">
<title>C&#45;&gt;E</title>
<path fill="none" stroke="#000000" d="M18.7714,-147.9107C20.2399,-122.6919 22.8839,-77.2857 24.3587,-51.9575"/>
</g>
<!-- E&#45;&gt;End -->
<g id="edge9" class="edge">
<title>E&#45;&gt;End</title>
<path fill="none" stroke="#000000" d="M43.2763,-30.736C58.0761,-28.3488 79.0774,-24.9613 94.2782,-22.5094"/>
</g>
</g>
</svg>
