<?xml version="1.0" encoding="UTF-8" standalone="no"?>
<!DOCTYPE svg PUBLIC "-//W3C//DTD SVG 1.1//EN"
 "http://www.w3.org/Graphics/SVG/1.1/DTD/svg11.dtd">
<!-- Generated by graphviz version 2.40.1 (20161225.0304)
 -->
<!-- Title: %3 Pages: 1 -->
<svg width="296pt" height="302pt"
 viewBox="0.00 0.00 296.00 302.00" xmlns="http://www.w3.org/2000/svg" xmlns:xlink="http://www.w3.org/1999/xlink">
<g id="graph0" class="graph" transform="scale(1 1) rotate(0) translate(4 298)">
<title>%3</title>
<!-- Start -->
<g id="node1" class="node">
<title>Start</title>
<ellipse fill="#b2df8a" stroke="#b2df8a" cx="30.9765" cy="-192.5187" rx="21.3606" ry="21.3606"/>
<polyline fill="none" stroke="#b2df8a" points="45.1504,-208.5914 16.8025,-208.5914 "/>
<polyline fill="none" stroke="#b2df8a" points="45.1504,-176.4461 16.8025,-176.4461 "/>
<text text-anchor="middle" x="30.9765" y="-189.5187" font-family="sans-serif" font-size="10.00" fill="#1f78b4">Start</text>
</g>
<!-- A -->
<g id="node2" class="node">
<title>A</title>
<ellipse fill="#fdbf6f" stroke="#fdbf6f" cx="18.4424" cy="-109.7394" rx="18" ry="18"/>
<polyline fill="none" stroke="#fdbf6f" points="30.3476,-123.2394 6.5372,-123.2394 "/>
<polyline fill="none" stroke="#fdbf6f" points="30.3476,-96.2394 6.5372,-96.2394 "/>
<text text-anchor="middle" x="18.4424" y="-106.7394" font-family="sans-serif" font-size="10.00" fill="#e31a1c">A</text>
</g>
<!-- Start&#45;&gt;A -->
<g id="edge1" class="edge">
<title>Start&#45;&gt;A</title>
<path fill="none" stroke="#000000" d="M27.7486,-171.201C25.7031,-157.692 23.0877,-140.419 21.1507,-127.6264"/>
</g>
<!-- B -->
<g id="node3" class="node">
<title>B</title>
<ellipse fill="#b2df8a" stroke="#b2df8a" cx="106.9119" cy="-129.9499" rx="18" ry="18"/>
<polyline fill="none" stroke="#b2df8a" points="118.8171,-143.4499 95.0067,-143.4499 "/>
<polyline fill="none" stroke="#b2df8a" points="118.8171,-116.4499 95.0067,-116.4499 "/>
<text text-anchor="middle" x="106.9119" y="-126.9499" font-family="sans-serif" font-size="10.00" fill="#1f78b4">B</text>
</g>
<!-- Start&#45;&gt;B -->
<g id="edge5" class="edge">
<title>Start&#45;&gt;B</title>
<path fill="none" stroke="#000000" d="M47.829,-178.6327C58.6582,-169.7097 72.8478,-158.0179 84.6068,-148.3287"/>
<polygon fill="#000000" stroke="#000000" points="87.165,-150.756 92.6569,-141.6956 82.7135,-145.3536 87.165,-150.756"/>
</g>
<!-- C -->
<g id="node4" class="node">
<title>C</title>
<ellipse fill="#fdbf6f" stroke="#fdbf6f" cx="26.8092" cy="-272.6582" rx="18" ry="18"/>
<polyline fill="none" stroke="#fdbf6f" points="38.7144,-286.1582 14.904,-286.1582 "/>
<polyline fill="none" stroke="#fdbf6f" points="38.7144,-259.1582 14.904,-259.1582 "/>
<text text-anchor="middle" x="26.8092" y="-269.6582" font-family="sans-serif" font-size="10.00" fill="#e31a1c">C</text>
</g>
<!-- Start&#45;&gt;C -->
<g id="edge9" class="edge">
<title>Start&#45;&gt;C</title>
<path fill="none" stroke="#000000" d="M29.8597,-213.9947C29.1991,-226.6983 28.3719,-242.6059 27.7456,-254.65"/>
</g>
<!-- A&#45;&gt;B -->
<g id="edge8" class="edge">
<title>A&#45;&gt;B</title>
<path fill="none" stroke="#000000" d="M36.3455,-113.8293C51.7955,-117.3588 73.9838,-122.4276 89.3373,-125.935"/>
</g>
<!-- D -->
<g id="node5" class="node">
<title>D</title>
<ellipse fill="#fdbf6f" stroke="#fdbf6f" cx="19.2563" cy="-22.1896" rx="18" ry="18"/>
<polyline fill="none" stroke="#fdbf6f" points="31.1615,-35.6896 7.3511,-35.6896 "/>
<polyline fill="none" stroke="#fdbf6f" points="31.1615,-8.6896 7.3511,-8.6896 "/>
<text text-anchor="middle" x="19.2563" y="-19.1896" font-family="sans-serif" font-size="10.00" fill="#e31a1c">D</text>
</g>
<!-- A&#45;&gt;D -->
<g id="edge2" class="edge">
<title>A&#45;&gt;D</title>
<path fill="none" stroke="#000000" d="M18.611,-91.599C18.7507,-76.5733 18.9482,-55.326 19.0878,-40.3067"/>
</g>
<!-- H -->
<g id="node9" class="node">
<title>H</title>
<ellipse fill="#b2df8a" stroke="#b2df8a" cx="179.2675" cy="-54.4923" rx="18" ry="18"/>
<polyline fill="none" stroke="#b2df8a" points="191.1727,-67.9923 167.3623,-67.9923 "/>
<polyline fill="none" stroke="#b2df8a" points="191.1727,-40.9923 167.3623,-40.9923 "/>
<text text-anchor="middle" x="179.2675" y="-51.4923" font-family="sans-serif" font-size="10.00" fill="#1f78b4">H</text>
</g>
<!-- B&#45;&gt;H -->
<g id="edge6" class="edge">
<title>B&#45;&gt;H</title>
<path fill="none" stroke="#000000" d="M119.5153,-116.8062C130.6169,-105.2287 146.9642,-88.1805 159.755,-74.8413"/>
<polygon fill="#000000" stroke="#000000" points="162.4136,-77.1257 166.8086,-67.4854 157.3611,-72.2809 162.4136,-77.1257"/>
</g>
<!-- L -->
<g id="node13" class="node">
<title>L</title>
<ellipse fill="#d3d3d3" stroke="#d3d3d3" cx="131.3108" cy="-259.4854" rx="18" ry="18"/>
<polyline fill="none" stroke="#d3d3d3" points="143.216,-272.9854 119.4056,-272.9854 "/>
<polyline fill="none" stroke="#d3d3d3" points="143.216,-245.9854 119.4056,-245.9854 "/>
<text text-anchor="middle" x="131.3108" y="-256.4854" font-family="sans-serif" font-size="10.00" fill="#000000">L</text>
</g>
<!-- C&#45;&gt;L -->
<g id="edge10" class="edge">
<title>C&#45;&gt;L</title>
<path fill="none" stroke="#000000" d="M45.012,-270.3637C64.1925,-267.9459 94.2151,-264.1614 113.3166,-261.7536"/>
</g>
<!-- F -->
<g id="node7" class="node">
<title>F</title>
<ellipse fill="#fdbf6f" stroke="#fdbf6f" cx="109.4036" cy="-20.5741" rx="18" ry="18"/>
<polyline fill="none" stroke="#fdbf6f" points="121.3088,-34.0741 97.4984,-34.0741 "/>
<polyline fill="none" stroke="#fdbf6f" points="121.3088,-7.0741 97.4984,-7.0741 "/>
<text text-anchor="middle" x="109.4036" y="-17.5741" font-family="sans-serif" font-size="10.00" fill="#e31a1c">F</text>
</g>
<!-- D&#45;&gt;F -->
<g id="edge3" class="edge">
<title>D&#45;&gt;F</title>
<path fill="none" stroke="#000000" d="M37.4989,-21.8627C53.1391,-21.5824 75.5557,-21.1806 91.1881,-20.9005"/>
</g>
<!-- E -->
<g id="node6" class="node">
<title>E</title>
<ellipse fill="#d3d3d3" stroke="#d3d3d3" cx="262.4185" cy="-113.6839" rx="18" ry="18"/>
<polyline fill="none" stroke="#d3d3d3" points="274.3237,-127.1839 250.5133,-127.1839 "/>
<polyline fill="none" stroke="#d3d3d3" points="274.3237,-100.1839 250.5133,-100.1839 "/>
<text text-anchor="middle" x="262.4185" y="-110.6839" font-family="sans-serif" font-size="10.00" fill="#000000">E</text>
</g>
<!-- End -->
<g id="node8" class="node">
<title>End</title>
<ellipse fill="#b2df8a" stroke="#b2df8a" cx="259.911" cy="-19.1377" rx="19.5208" ry="19.5208"/>
<polyline fill="none" stroke="#b2df8a" points="272.8152,-33.7705 247.0068,-33.7705 "/>
<polyline fill="none" stroke="#b2df8a" points="272.8152,-4.5049 247.0068,-4.5049 "/>
<text text-anchor="middle" x="259.911" y="-16.1377" font-family="sans-serif" font-size="10.00" fill="#1f78b4">End</text>
</g>
<!-- E&#45;&gt;End -->
<g id="edge14" class="edge">
<title>E&#45;&gt;End</title>
<path fill="none" stroke="#000000" d="M261.935,-95.4544C261.5052,-79.2491 260.8783,-55.6092 260.4363,-38.9433"/>
</g>
<!-- F&#45;&gt;H -->
<g id="edge4" class="edge">
<title>F&#45;&gt;H</title>
<path fill="none" stroke="#000000" d="M125.6074,-28.4408C136.7328,-33.8421 151.4567,-40.9904 162.6665,-46.4326"/>
</g>
<!-- H&#45;&gt;End -->
<g id="edge7" class="edge">
<title>H&#45;&gt;End</title>
<path fill="none" stroke="#000000" d="M195.9769,-47.1668C206.5338,-42.5386 220.4249,-36.4486 232.5612,-31.128"/>
<polygon fill="#000000" stroke="#000000" points="234.0677,-34.2892 241.8209,-27.0685 231.257,-27.8782 234.0677,-34.2892"/>
</g>
<!-- I -->
<g id="node10" class="node">
<title>I</title>
<ellipse fill="#d3d3d3" stroke="#d3d3d3" cx="179.1742" cy="-172.2413" rx="18" ry="18"/>
<polyline fill="none" stroke="#d3d3d3" points="191.0794,-185.7413 167.269,-185.7413 "/>
<polyline fill="none" stroke="#d3d3d3" points="191.0794,-158.7413 167.269,-158.7413 "/>
<text text-anchor="middle" x="179.1742" y="-169.2413" font-family="sans-serif" font-size="10.00" fill="#000000">I</text>
</g>
<!-- K -->
<g id="node12" class="node">
<title>K</title>
<ellipse fill="#d3d3d3" stroke="#d3d3d3" cx="269.8432" cy="-202.0977" rx="18" ry="18"/>
<polyline fill="none" stroke="#d3d3d3" points="281.7484,-215.5977 257.938,-215.5977 "/>
<polyline fill="none" stroke="#d3d3d3" points="281.7484,-188.5977 257.938,-188.5977 "/>
<text text-anchor="middle" x="269.8432" y="-199.0977" font-family="sans-serif" font-size="10.00" fill="#000000">K</text>
</g>
<!-- I&#45;&gt;K -->
<g id="edge12" class="edge">
<title>I&#45;&gt;K</title>
<path fill="none" stroke="#000000" d="M196.6561,-177.9979C212.8144,-183.3187 236.6802,-191.1774 252.7225,-196.46"/>
</g>
<!-- J -->
<g id="node11" class="node">
<title>J</title>
<ellipse fill="#d3d3d3" stroke="#d3d3d3" cx="243.1902" cy="-275.9471" rx="18" ry="18"/>
<polyline fill="none" stroke="#d3d3d3" points="255.0954,-289.4471 231.285,-289.4471 "/>
<polyline fill="none" stroke="#d3d3d3" points="255.0954,-262.4471 231.285,-262.4471 "/>
<text text-anchor="middle" x="243.1902" y="-272.9471" font-family="sans-serif" font-size="10.00" fill="#000000">J</text>
</g>
<!-- J&#45;&gt;L -->
<g id="edge16" class="edge">
<title>J&#45;&gt;L</title>
<path fill="none" stroke="#000000" d="M225.2148,-273.3023C204.3369,-270.2303 170.1004,-265.1928 149.2415,-262.1237"/>
</g>
<!-- K&#45;&gt;E -->
<g id="edge13" class="edge">
<title>K&#45;&gt;E</title>
<path fill="none" stroke="#000000" d="M268.3048,-183.7783C267.022,-168.5031 265.2046,-146.861 263.9295,-131.6773"/>
</g>
<!-- K&#45;&gt;J -->
<g id="edge15" class="edge">
<title>K&#45;&gt;J</title>
<path fill="none" stroke="#000000" d="M263.6615,-219.2258C259.3556,-231.1564 253.6369,-247.0017 249.3384,-258.9118"/>
</g>
<!-- L&#45;&gt;I -->
<g id="edge11" class="edge">
<title>L&#45;&gt;I</title>
<path fill="none" stroke="#000000" d="M140.0896,-243.4835C148.7257,-227.7418 161.8341,-203.8483 170.451,-188.1418"/>
</g>
</g>
</svg>
