<svg xmlns="http://www.w3.org/2000/svg" viewBox="0 0 90 90"><defs><style>.cls-1{fill:#66423f;}.cls-2{fill:#754c49;}.cls-3{fill:#7ba60d;}.cls-4{fill:#9cc925;}</style></defs><title>trees</title><g id="trees"><path class="cls-1" d="M45.31,85h4.2a1.67,1.67,0,0,0,1.68-1.67V63H43.64V83.33A1.67,1.67,0,0,0,45.31,85Z"/><polygon class="cls-2" points="48.84 75.03 50.24 77.3 60.94 63.81 60.23 63.33 48.84 75.03"/><polygon class="cls-2" points="44.29 79.29 46.46 76.92 34.12 63.28 33.2 64.28 44.29 79.29"/><path class="cls-3" d="M55.36,62.58a11.28,11.28,0,0,1-15.89,0L28.87,52a14.52,14.52,0,0,1-2.33-17.58L41.79,8.23A6.51,6.51,0,0,1,53,8.23L68.28,34.46A14.52,14.52,0,0,1,66,52Z"/><path class="cls-4" d="M38,63.7a5.08,5.08,0,0,1-5.32,4.83l-6.78-.32A6.64,6.64,0,0,1,19.68,63L16.74,49.61a2.94,2.94,0,0,1,3.77-3.42l13.16,4.17A6.61,6.61,0,0,1,38.28,57Z"/><path class="cls-4" d="M56.3,65.1A4.07,4.07,0,0,0,60.56,69L66,68.71a5.31,5.31,0,0,0,4.94-4.15l2.36-10.73a2.35,2.35,0,0,0-3-2.73L59.74,54.43A5.29,5.29,0,0,0,56,59.7Z"/></g></svg>