<svg xmlns="http://www.w3.org/2000/svg" viewBox="0 0 90 90"><defs><style>.cls-1{fill:#754c49;}.cls-2{fill:#7ba60d;}.cls-3{fill:#9cc925;}</style></defs><title>pine-trees</title><g id="pine-trees"><path class="cls-1" d="M69.11,51.25H64.64a.78.78,0,0,1-.78-.78V41.34h6v9.13A.78.78,0,0,1,69.11,51.25Z"/><path class="cls-2" d="M82.42,45,67.93,8.21a1.14,1.14,0,0,0-2.12,0L51.33,45a1.12,1.12,0,0,0,1.06,1.52h29A1.12,1.12,0,0,0,82.42,45Z"/><path class="cls-1" d="M25.36,51.25H20.89a.78.78,0,0,1-.78-.78V41.34h6v9.13A.78.78,0,0,1,25.36,51.25Z"/><path class="cls-2" d="M38.67,45,24.18,8.21a1.14,1.14,0,0,0-2.12,0L7.58,45a1.12,1.12,0,0,0,1.06,1.52h29A1.12,1.12,0,0,0,38.67,45Z"/><path class="cls-1" d="M48.26,82.5H41.74a1.56,1.56,0,0,1-1.56-1.56V66.65h9.65V80.94A1.56,1.56,0,0,1,48.26,82.5Z"/><path class="cls-3" d="M69.88,67.52,46.69,8.64a1.83,1.83,0,0,0-3.39,0L20.12,67.52a1.79,1.79,0,0,0,1.69,2.43H68.18A1.79,1.79,0,0,0,69.88,67.52Z"/></g></svg>