<svg xmlns="http://www.w3.org/2000/svg" viewBox="0 0 90 90"><defs><style>.cls-1{fill:#7ba60d;}.cls-1,.cls-2,.cls-3,.cls-4{fill-rule:evenodd;}.cls-2,.cls-6{fill:#9cc925;}.cls-3{fill:#87613e;}.cls-4,.cls-5{fill:#ededed;}</style></defs><title>snowy-pine-trees</title><g id="snowy-pine-trees"><path class="cls-1" d="M22.86,30H39.48L51.63,51.81a.86.86,0,0,1-.76,1.28H11.49a.86.86,0,0,1-.76-1.28Z"/><path class="cls-2" d="M31.91,7.95,43.42,28.69A.86.86,0,0,1,42.66,30h-23a.86.86,0,0,1-.76-1.28L30.39,7.95A.87.87,0,0,1,31.91,7.95Z"/><path class="cls-3" d="M31.19,53.09h6V57.8a.86.86,0,0,1-.87.86H26a.86.86,0,0,1-.87-.86V53.09Z"/><path class="cls-2" d="M55.51,12.46l3.26,3.26,1.61-1.61L62,15.71l1.16-1.16,7.84,14.14A.86.86,0,0,1,70.29,30h-23a.86.86,0,0,1-.76-1.28Z"/><path class="cls-1" d="M50.49,30H67.11L79.27,51.81a.86.86,0,0,1-.76,1.28H39.12a.86.86,0,0,1-.76-1.28Z"/><path class="cls-4" d="M58,7.94a.87.87,0,0,1,1.52,0l3.67,6.61L62,15.71,60.39,14.1l-1.61,1.61-3.26-3.26Z"/><path class="cls-3" d="M58.82,53.09h6V57.8a.86.86,0,0,1-.87.86H53.64a.86.86,0,0,1-.87-.86V53.09Z"/><path class="cls-1" d="M36.54,53.8H53.16L65.32,75.64a.86.86,0,0,1-.76,1.28H25.18a.86.86,0,0,1-.76-1.28Z"/><path class="cls-5" d="M46.45,37.94l-1.61,1.61-3.26-3.25,2.51-4.51a.87.87,0,0,1,1.52,0l3.67,6.61L48.1,39.55Z"/><path class="cls-5" d="M44.83,46.47l3.26,3.26,4.8-4.79,4.21,7.59a.86.86,0,0,1-.76,1.28H37.48Z"/><path class="cls-2" d="M37.48,53.8l7.35-7.33V39.55l-3.26-3.25-9,16.23a.86.86,0,0,0,.76,1.28h3.22"/><polygon class="cls-6" points="44.83 46.47 44.83 39.55 46.45 37.94 48.1 39.55 49.26 38.39 52.9 44.93 48.1 49.72 44.83 46.47"/><path class="cls-3" d="M44.87,76.92h6v4.71a.86.86,0,0,1-.87.86H39.69a.86.86,0,0,1-.87-.86V76.92Z"/></g></svg>