<svg xmlns="http://www.w3.org/2000/svg" viewBox="0 0 90 90"><defs><style>.cls-1{fill:#754c49;}.cls-2{fill:#9cc925;}</style></defs><title>tree</title><g id="tree"><path class="cls-1" d="M58.83,62a4.15,4.15,0,0,1-.05-.67,4.71,4.71,0,0,1,0-.48l.07-.65L58.27,60a4.68,4.68,0,0,1-1.72-1.14l-.4-.42-.54.2a17.82,17.82,0,0,0-4.86,2.84c-.21-1.25-.41-2.25-.61-3-1.07-3.94-2.32-7.94-3.74-11.92a26.49,26.49,0,0,0,8.23-6.28l.63-.68L54.54,39A5.57,5.57,0,0,1,53,37.16l-.52-1-.84.79a19.33,19.33,0,0,1-7.2,4.4c-.65-1.64-1.32-3.27-2-4.86l-.5-1.17-.9.9a7,7,0,0,1-1.52,1.16,7.26,7.26,0,0,1-1.34.59l-.84.27.29.82c2.11,5.89,3.68,10.78,4.67,14.55a38.46,38.46,0,0,1,1,6,29.93,29.93,0,0,1-6.55-2.09l-.41-.2-.4.23-.39.21L35,58l.09.62a3.76,3.76,0,0,1,.05.52,4.09,4.09,0,0,1-.25,1.38l-.23.65.6.36a27.78,27.78,0,0,0,8.27,3.36,68.54,68.54,0,0,1-3.12,19L40.05,85H53.2l-.07-.91c0-.08-.59-8-1.38-15.14,1.38-3.11,4.34-5,6.59-6l.59-.27Z"/><path class="cls-2" d="M78.33,55.44a5.15,5.15,0,0,0-3.52-4.84,5.12,5.12,0,0,0-2.53-5.18,5.26,5.26,0,0,0-6,.59,5.24,5.24,0,0,0-5.8-.42A5.12,5.12,0,0,0,58,51a5.09,5.09,0,0,0,.24,9.59,5.13,5.13,0,0,0,5.1,5.86,5.25,5.25,0,0,0,3.43-1.27,5.24,5.24,0,0,0,5.8.42,5.12,5.12,0,0,0,2.49-5.42A5.12,5.12,0,0,0,78.33,55.44Z"/><path class="cls-2" d="M48.87,21.81a7.82,7.82,0,0,0-5.78-7.48A7.72,7.72,0,0,0,39.34,6a8,8,0,0,0-9.45,1.2,7.94,7.94,0,0,0-9.15-.94A7.75,7.75,0,0,0,17.07,15a7.73,7.73,0,0,0,.38,14.85,7.73,7.73,0,0,0,3.76,8.31,8,8,0,0,0,9.44-1.21,7.94,7.94,0,0,0,9.16.94,7.76,7.76,0,0,0,3.67-8.68A7.77,7.77,0,0,0,48.87,21.81Z"/><path class="cls-2" d="M38.6,54a4.72,4.72,0,0,0-3.15-4.4,4.66,4.66,0,0,0-2.33-4.67,4.81,4.81,0,0,0-5.43.49,4.79,4.79,0,0,0-5.25-.34A4.69,4.69,0,0,0,20.15,50a4.66,4.66,0,0,0,.22,8.73,4.66,4.66,0,0,0,2.32,4.66,4.74,4.74,0,0,0,2.35.62,4.82,4.82,0,0,0,3.08-1.11,4.8,4.8,0,0,0,5.25.34,4.68,4.68,0,0,0,2.29-4.89A4.68,4.68,0,0,0,38.6,54Z"/><path class="cls-2" d="M75.43,30.34a5.72,5.72,0,0,0-4.06-5.42A5.64,5.64,0,0,0,68.59,19a5.81,5.81,0,0,0-6.77.76,5.79,5.79,0,0,0-6.56-.57,5.66,5.66,0,0,0-2.72,6.18,5.64,5.64,0,0,0,.27,10.74A5.65,5.65,0,0,0,55.59,42a5.81,5.81,0,0,0,6.77-.76,5.8,5.8,0,0,0,6.57.58,5.69,5.69,0,0,0,2.71-6.18A5.66,5.66,0,0,0,75.43,30.34Z"/></g></svg>