<?xml version="1.0"?>
<svg xmlns="http://www.w3.org/2000/svg" width="50" height="50" viewBox="0 0 50 50">
    <path fill="white" d="M 22.5625 0 C 20.8525 0 20.0625 1.489 20.0625 2.5 L 20.0625 21.03125 C 20.0625 21.58325 19.6145 22.03125 19.0625 22.03125 C 18.5105 22.03125 18.0625 21.58325 18.0625 21.03125 L 18.0625 5.5 C 18.0625 3.661 16.5695 3 15.5625 3 C 14.5965 3 13.0625 3.634 13.0625 5.375 L 13.0625 25.25 C 14.2155 24.886 15.099 24.84375 15.125 24.84375 L 26.46875 23.34375 C 29.24075 22.92575 31.42375 24.93075 31.96875 27.21875 C 32.57075 29.73975 31.14675 32.20275 28.59375 33.09375 L 23.71875 34.375 C 25.25975 35.682 27.31275 38.07775 27.96875 41.84375 C 28.06375 42.38775 27.69925 42.906 27.15625 43 C 27.09825 43.009 27.057 43 27 43 C 26.522 43 26.085 42.6725 26 42.1875 C 25.214 37.6785 22.05275 35.495 21.21875 35 L 20.96875 35.0625 L 21.9375 36.875 C 22.2025 37.359 22.0475 37.95475 21.5625 38.21875 C 21.4105 38.30175 21.2245 38.34375 21.0625 38.34375 C 20.7085 38.34375 20.3695 38.17675 20.1875 37.84375 L 18.59375 34.90625 C 18.44675 34.63525 18.4405 34.31325 18.5625 34.03125 C 18.6855 33.74825 18.92075 33.54575 19.21875 33.46875 L 28.03125 31.1875 C 29.72525 30.5925 30.33925 28.94625 30.03125 27.65625 C 29.71425 26.32625 28.443 25.1395 26.875 25.3125 C 26.84 25.3165 26.81725 25.33975 26.78125 25.34375 L 15.28125 26.8125 C 14.97025 26.8305 9.86075 27.1745 9.09375 32.6875 C 8.96975 34.5835 9.47025 36.2335 9.53125 36.4375 L 12.0625 45.25 C 13.0055 48.51 16.55675 50 19.46875 50 L 22.0625 50 L 32 50 C 32.287 50 32.588 49.99675 32.875 49.96875 C 33.036 49.95275 33.18375 49.899 33.34375 49.875 C 33.46475 49.856 33.5675 49.86775 33.6875 49.84375 C 33.8595 49.81175 34.05075 49.76075 34.21875 49.71875 C 34.33275 49.68975 34.4485 49.658 34.5625 49.625 C 34.6965 49.586 34.8065 49.545 34.9375 49.5 C 35.0995 49.444 35.2785 49.3775 35.4375 49.3125 C 35.4995 49.2885 35.565 49.277 35.625 49.25 C 38.39 48.062 40.63675 45.5225 40.96875 41.9375 C 40.99875 41.6345 41 41.312 41 41 L 41 29 C 41 28.651 40.94875 28.163 40.84375 27.625 C 40.33475 29.552 38.585 31 36.5 31 C 34.019 31 32 28.981 32 26.5 L 32 18.5 C 32 18.275 32.0305 18.05975 32.0625 17.84375 L 32.0625 6.46875 C 32.0845 5.26075 31.34375 4 29.59375 4 C 27.84175 4 27.09375 5.357 27.09375 6.5 L 27.09375 21 C 27.09375 21.552 26.64675 22 26.09375 22 C 25.54075 22 25.0635 21.552 25.0625 21 L 25.0625 2.5 C 25.0635 1.489 24.2715 -1.4802974e-16 22.5625 0 z M 36.5 16 C 35.119 16 34 17.119 34 18.5 L 34 26.5 C 34 27.881 35.119 29 36.5 29 C 37.881 29 39 27.881 39 26.5 L 39 18.5 C 39 17.119 37.881 16 36.5 16 z"/>
</svg>
