<svg xmlns="http://www.w3.org/2000/svg" viewBox="0 0 90 90"><defs><style>.cls-1{fill:#754c49;}.cls-2{fill:#9cc925;}.cls-3{fill:#7ba60d;}.cls-4{fill:#668a0b;}</style></defs><title>pine-tree</title><g id="pine-tree"><path class="cls-1" d="M48.26,85H41.74A1.7,1.7,0,0,1,40,83.31V70.21a1.7,1.7,0,0,1,1.71-1.69h6.51A1.7,1.7,0,0,1,50,70.21v13.1A1.7,1.7,0,0,1,48.26,85Z"/><path class="cls-2" d="M20.31,69.28,43.6,36.34a1.71,1.71,0,0,1,2.79,0L69.69,69.28a1.69,1.69,0,0,1-1.4,2.66H21.71A1.69,1.69,0,0,1,20.31,69.28Z"/><path class="cls-3" d="M23.15,48.22,43.6,19.29a1.71,1.71,0,0,1,2.79,0L66.85,48.22a1.69,1.69,0,0,1-1.4,2.66H24.54A1.69,1.69,0,0,1,23.15,48.22Z"/><path class="cls-4" d="M28.47,27.12,43.6,5.72a1.71,1.71,0,0,1,2.79,0l15.13,21.4a1.69,1.69,0,0,1-1.4,2.66H29.87A1.69,1.69,0,0,1,28.47,27.12Z"/></g></svg>